<?xml version="1.0" ?><svg id="Layer_1" style="enable-background:new 0 0 300 300;" version="1.1" viewBox="0 0 300 300" xml:space="preserve" xmlns="http://www.w3.org/2000/svg" xmlns:xlink="http://www.w3.org/1999/xlink"><g id="XMLID_3_"><path d="M33.7,253c-2.8,0-5,2.2-5,5v13.3c0,2.8,2.2,5,5,5s5-2.2,5-5V258C38.7,255.2,36.5,253,33.7,253z" id="XMLID_84_"/><path d="M57.8,253c-2.8,0-5,2.2-5,5v13.3c0,2.8,2.2,5,5,5s5-2.2,5-5V258C62.8,255.2,60.6,253,57.8,253z" id="XMLID_115_"/><path d="M82,253c-2.8,0-5,2.2-5,5v13.3c0,2.8,2.2,5,5,5s5-2.2,5-5V258C87,255.2,84.7,253,82,253z" id="XMLID_121_"/><path d="M106.1,253c-2.8,0-5,2.2-5,5v13.3c0,2.8,2.2,5,5,5s5-2.2,5-5V258C111.1,255.2,108.9,253,106.1,253z" id="XMLID_122_"/><path d="M130.2,253c-2.8,0-5,2.2-5,5v13.3c0,2.8,2.2,5,5,5s5-2.2,5-5V258C135.2,255.2,133,253,130.2,253z" id="XMLID_123_"/><path d="M154.4,253c-2.8,0-5,2.2-5,5v13.3c0,2.8,2.2,5,5,5c2.8,0,5-2.2,5-5V258C159.4,255.2,157.1,253,154.4,253z" id="XMLID_124_"/><path d="M40.4,175.6l0.1-0.1c1.5-1.9,1.4-4.6-0.3-6.4c-4.1-4.6-11.1-14.6-11.1-30.3c0-11.6,5-18.8,10.3-26.5   c3.4-5,6.9-10,8.8-16.1c6.5,7.3,7.6,19.1,7.7,19.2l0,0c0.4,4.6,6.3,6.3,9,2.5l0,0c0.6-0.9,15.2-21.1,21.1-43.7   c3.1-11.8,2.6-27.9,2-37.6c12.5,6.2,36.5,21.9,36.5,50.4c0,2.8,2.2,5,5,5c9.2,0,15.1-6.7,18.5-13.8c3.5,5.4,8,13.5,11.4,23.5   c7.9,23.3,6.6,46-3.9,67.6c-1.2,2.4-0.3,5.2,2,6.5l0.1,0.1c2.5,1.4,5.6,0.4,6.8-2.2c14.6-30,10.5-57.5,4.3-75.6   c-7.1-20.5-18.1-33.5-18.6-34c-2.7-3.2-7.9-1.8-8.7,2.4l0,0c0,0.1-2.1,9.9-7.2,13.9C129.5,40,85.6,24.6,83.7,24l0,0   c-3.5-1.2-7,1.7-6.6,5.3l0,0c0,0.3,3.2,26.6-0.9,42.5c-3,11.7-8.8,23-13.3,30.6c-2.6-7.2-7.4-15.6-16.4-19.6l0,0   c-3.3-1.5-7,0.9-7,4.6v0c0,7.3-3.8,12.9-8.3,19.3c-5.6,8.2-12,17.5-12,32.2c0,18.8,8.5,31.2,13.8,37   C34.9,178.2,38.5,178,40.4,175.6z" id="XMLID_135_"/><path d="M93.6,148.2L93.6,148.2c-2.6-1.5-5.8-0.4-7,2.3c-4.4,9.9-4.2,17.3-2.9,22.1c0.9,3.5,5.3,4.8,8,2.4l0.1,0   c1.4-1.2,2-3.2,1.5-5c-0.7-2.8-0.9-7.9,2.5-15.5C96.8,152.2,95.9,149.4,93.6,148.2z" id="XMLID_136_"/><path d="M127.4,158.5c2-7.6,3.5-21.7-6.8-34.9c-1.8-2.3-5.3-2.5-7.4-0.4l-0.1,0.1c-1.8,1.8-1.9,4.5-0.4,6.5   c7.7,9.9,6.4,20.6,5,26.2c-0.6,2.3,0.5,4.7,2.7,5.7l-4-1.9l4,1.9c0,0,0,0,0,0l0.5,0.2l-0.4-0.2   C123.3,163.1,126.6,161.5,127.4,158.5z" id="XMLID_137_"/><path d="M286.7,193.3H175.1H172H13c-4.3,0-8.3,2.1-10.8,5.7s-2.9,8.1-1.3,12.1l6.8,17.2c3.6,9.1,12.3,15,22.1,15   h128.6c9.8,0,18.5-5.9,22.1-15l1.3-3.2c1.9-1.9,8.6-8.1,15.6-8.5c26.9-1.8,88.1,3.3,88.7,3.4l0.2,0c3.6,0.1,7.1-1.2,9.8-3.7   c2.6-2.5,4.1-6,4.1-9.6C300,199.3,294.1,193.3,286.7,193.3z M177.9,207.4l-6.8,17.2c-2.1,5.3-7.1,8.7-12.8,8.7H29.8   c-5.7,0-10.7-3.4-12.8-8.7l-6.8-17.2c-0.5-1.3,0-2.4,0.3-2.8c0.3-0.4,1-1.3,2.5-1.3h162.2c1.4,0,2.2,0.9,2.5,1.3   C177.9,205,178.5,206.1,177.9,207.4z M289,209.1c-0.6,0.6-1.4,0.9-2.3,0.9c0,0,0,0,0,0c-4.1-0.3-62.8-5.2-90.1-3.4   c-3.1,0.2-6,1.1-8.7,2.2c0.4-1.8,0.3-3.7-0.1-5.5h98.9c1.8,0,3.3,1.5,3.3,3.3C290,207.6,289.7,208.4,289,209.1z" id="XMLID_218_"/></g></svg>