<?xml version="1.0" encoding="iso-8859-1"?>
<!-- Generator: Adobe Illustrator 21.0.0, SVG Export Plug-In . SVG Version: 6.00 Build 0)  -->
<svg version="1.1" id="Layer_1" xmlns="http://www.w3.org/2000/svg" xmlns:xlink="http://www.w3.org/1999/xlink" x="0px" y="0px"
	 viewBox="0 0 24 24" enable-background="new 0 0 24 24" xml:space="preserve">
<g>
	<g id="XMLID_1365_">
		<polygon fill="#303C42" points="6.7065139,23 4.9999709,23 4.9999709,22 6.2934279,22 7.4799514,20.8173828 8.1860056,21.5253906 
					"/>
	</g>
	<g id="XMLID_1366_">
		<polygon fill="#303C42" points="18.9999714,23 17.2968464,23 15.785615,21.5297852 16.4828815,20.8129883 17.7030964,22 
			18.9999714,22 		"/>
	</g>
	<path fill="#2E9E46" d="M11.9999704,3.5c-0.2404175,0-0.4646606,0.0622559-0.6663208,0.163269
		C11.1214304,3.2744751,10.723115,3,10.2499704,3C9.9011545,3,9.5869455,3.1450806,9.3599558,3.3764038
		C9.1223459,2.8607788,8.6037912,2.5,7.9999709,2.5c-0.5657959,0-1.0535889,0.3187256-1.309021,0.7826538
		C6.5110183,3.109436,6.2687697,3,5.9999709,3c-0.5512695,0-1,0.4487305-1,1s0.4487305,1,1,1
		c0.2687988,0,0.5110474-0.109436,0.690979-0.2826538C6.946382,5.1812744,7.434175,5.5,7.9999709,5.5
		c0.4931636,0,0.927856-0.2425537,1.2014766-0.6112061C9.4214182,5.2474976,9.7994089,5.5,10.2499704,5.5
		c0.1140747,0,0.2167969-0.036377,0.3218994-0.0651855C10.759675,6.0489502,11.3252878,6.5,11.9999704,6.5
		c0.8269043,0,1.5-0.6730957,1.5-1.5S12.8268747,3.5,11.9999704,3.5z"/>
	<g id="XMLID_1370_">
		<circle fill="#2E9E46" cx="6.4999709" cy="1.5" r="0.5"/>
	</g>
	<g id="XMLID_1316_">
		<circle fill="#2E9E46" cx="12.4999704" cy="2.5" r="0.5"/>
	</g>
	<linearGradient id="SVGID_1_" gradientUnits="userSpaceOnUse" x1="5.7619743" y1="1.8992444" x2="13.4328146" y2="5.4762163">
		<stop  offset="0" style="stop-color:#FFFFFF;stop-opacity:0.2"/>
		<stop  offset="1" style="stop-color:#FFFFFF;stop-opacity:0"/>
	</linearGradient>
	<path fill="url(#SVGID_1_)" d="M11.9999704,3.5c-0.2404175,0-0.4646606,0.0622559-0.6663208,0.163269
		C11.1214304,3.2744751,10.723115,3,10.2499704,3C9.9011545,3,9.5869455,3.1450806,9.3599558,3.3764038
		C9.1223459,2.8607788,8.6037912,2.5,7.9999709,2.5c-0.5657959,0-1.0535889,0.3187256-1.309021,0.7826538
		C6.5110183,3.109436,6.2687697,3,5.9999709,3c-0.5512695,0-1,0.4487305-1,1s0.4487305,1,1,1
		c0.2687988,0,0.5110474-0.109436,0.690979-0.2826538C6.946382,5.1812744,7.434175,5.5,7.9999709,5.5
		c0.4931636,0,0.927856-0.2425537,1.2014766-0.6112061C9.4214182,5.2474976,9.7994089,5.5,10.2499704,5.5
		c0.1140747,0,0.2167969-0.036377,0.3218994-0.0651855C10.759675,6.0489502,11.3252878,6.5,11.9999704,6.5
		c0.8269043,0,1.5-0.6730957,1.5-1.5S12.8268747,3.5,11.9999704,3.5z M6.4999709,2c0.276123,0,0.5-0.223877,0.5-0.5
		c0-0.2761841-0.223877-0.5-0.5-0.5s-0.5,0.2238159-0.5,0.5C5.9999709,1.776123,6.2238479,2,6.4999709,2z M12.4999704,3
		c0.276123,0,0.5-0.223877,0.5-0.5c0-0.2761841-0.223877-0.5-0.5-0.5s-0.5,0.2238159-0.5,0.5
		C11.9999704,2.776123,12.2238474,3,12.4999704,3z"/>
	<path fill="#BF6A1E" d="M16.9740925,4.6582031l0.5844727-1.7514648c0.1489258-0.4472656,0.0761719-0.9228516-0.199707-1.3051758
		C17.0834675,1.2192383,16.6552448,1,16.1835651,1c-0.6240244,0-1.1762705,0.3979492-1.3740244,0.9907227l-0.7836914,2.3510742
		L16.9740925,4.6582031z"/>
	<path opacity="0.2" fill="#FFFFFF" d="M16.2212849,1.25c0.4953003,0,0.9424438,0.2025146,1.2477417,0.5492554
		c-0.0341797-0.0669556-0.0650635-0.1351929-0.1101685-0.1976929C17.0834675,1.2192383,16.6552448,1,16.1835651,1
		c-0.6240244,0-1.1762705,0.3979492-1.3740244,0.9907227L14.761445,2.1349487C15.0126047,1.6054688,15.5757761,1.25,16.2212849,1.25
		z"/>
	<path fill="#454F55" d="M19.2314167,6.15625L19.0834675,6H4.8705764L4.7226272,6.1572266
		C2.9667675,8.0244141,1.9999708,10.4541016,1.9999708,13c0,2.4589844,0.9038085,4.8222656,2.5449219,6.6542969
		C5.880342,21.1450195,7.8676467,22,9.9970407,22h3.9936523c2.230958,0,4.3042002-0.949707,5.6889658-2.6049805
		c1.487793-1.7802734,2.3120117-4.0385742,2.3203125-6.3588867C22.0087605,10.4956055,21.0258503,8.0522461,19.2314167,6.15625z"/>
	<path fill="#303C42" d="M19.4999714,4h-15C3.6728222,4,2.9999707,4.6728516,2.9999707,5.5S3.6728222,7,4.4999709,7h15
		c0.8271484,0,1.5-0.6728516,1.5-1.5S20.3271198,4,19.4999714,4z"/>
	<path opacity="0.2" d="M19.6796589,19.1450195C18.2948933,20.800293,16.2216511,21.75,13.9906931,21.75H9.9970407
		c-2.1293941,0-4.1166987-0.8549805-5.452148-2.3457031c-1.6126711-1.800293-2.508301-4.1142578-2.5390627-6.5272217
		C2.0053418,12.9182739,1.9999708,12.9587402,1.9999708,13c0,2.4589844,0.9038085,4.8222656,2.5449219,6.6542969
		C5.880342,21.1450195,7.8676467,22,9.9970407,22h3.9936523c2.230958,0,4.3042002-0.949707,5.6889658-2.6049805
		c1.487793-1.7802734,2.3120117-4.0385742,2.3203125-6.3588867c0.0001221-0.0429077-0.0053711-0.085083-0.0057983-0.1279297
		C21.9578571,15.1854248,21.1412678,17.3961182,19.6796589,19.1450195z"/>
	<path opacity="0.1" d="M19.6735554,6.75H4.3263869c-0.4237063,0-0.8076785-0.1687012-1.0856326-0.440918
		C3.5079052,6.7235107,3.9712231,7,4.4999709,7h15c0.5287476,0,0.9920654-0.2764893,1.2592163-0.690918
		C20.4812336,6.5812988,20.0972614,6.75,19.6735554,6.75z"/>
	<path opacity="0.2" fill="#FFFFFF" d="M4.3263869,4.25h15.347168c0.4237061,0,0.8076782,0.1687012,1.0856323,0.440918
		C20.4920368,4.2764893,20.0287189,4,19.4999714,4h-15C3.9712231,4,3.5079052,4.2764893,3.2407544,4.690918
		C3.5187085,4.4187012,3.9026806,4.25,4.3263869,4.25z"/>
	<linearGradient id="SVGID_2_" gradientUnits="userSpaceOnUse" x1="8.0219431" y1="2.977417" x2="22.0785255" y2="17.0339985">
		<stop  offset="0" style="stop-color:#000000;stop-opacity:0.1"/>
		<stop  offset="1" style="stop-color:#000000;stop-opacity:0"/>
	</linearGradient>
	<path fill="url(#SVGID_2_)" d="M19.8994465,6.9391479C19.7714558,6.9747925,19.6391926,7,19.4999714,7h-15
		C4.352571,7,4.2129836,6.9720459,4.0783401,6.932251L4.066011,6.9333496
		C4.0654006,6.934082,4.0649123,6.9348145,4.064363,6.9356079l13.9239502,13.9239502
		c0.631897-0.3963623,1.2058105-0.8842163,1.6913452-1.4645386c1.487793-1.7802734,2.3120117-4.0385742,2.3203125-6.3588867
		C22.0076008,10.8323364,21.266695,8.7028198,19.8994465,6.9391479z"/>
	<linearGradient id="SVGID_3_" gradientUnits="userSpaceOnUse" x1="1.7680641" y1="7.809442" x2="21.7405663" y2="17.1227722">
		<stop  offset="0" style="stop-color:#FFFFFF;stop-opacity:0.2"/>
		<stop  offset="1" style="stop-color:#FFFFFF;stop-opacity:0"/>
	</linearGradient>
	<path fill="url(#SVGID_3_)" d="M6.4999709,2c0.276123,0,0.5-0.223877,0.5-0.5c0-0.2761841-0.223877-0.5-0.5-0.5
		s-0.5,0.2238159-0.5,0.5C5.9999709,1.776123,6.2238479,2,6.4999709,2z M12.4999704,3c0.276123,0,0.5-0.223877,0.5-0.5
		c0-0.2761841-0.223877-0.5-0.5-0.5s-0.5,0.2238159-0.5,0.5C11.9999704,2.776123,12.2238474,3,12.4999704,3z M19.8994465,6.9391479
		C20.5319538,6.7629395,20.9999714,6.1879272,20.9999714,5.5c0-0.8271484-0.6728516-1.5-1.5-1.5H17.193758l0.3648071-1.0932617
		c0.1489258-0.4472656,0.0761719-0.9228516-0.199707-1.3051758C17.0834675,1.2192383,16.6552448,1,16.1835651,1
		c-0.6240244,0-1.1762705,0.3979492-1.3740244,0.9907227L14.139802,4h-1.0300903c-0.2747803-0.3046265-0.668335-0.5-1.1097412-0.5
		c-0.2404175,0-0.4646606,0.0622559-0.6663208,0.163269C11.1214304,3.2744751,10.723115,3,10.2499704,3
		C9.9011545,3,9.5869455,3.1450806,9.3599558,3.3764038C9.1223459,2.8607788,8.6037912,2.5,7.9999709,2.5
		c-0.5657959,0-1.0535889,0.3187256-1.309021,0.7826538C6.5110183,3.109436,6.2687697,3,5.9999709,3c-0.5512695,0-1,0.4487305-1,1
		h-0.5C3.6728222,4,2.9999707,4.6728516,2.9999707,5.5c0,0.6762695,0.4527588,1.2427368,1.0689089,1.4293213
		C2.729768,8.6716309,1.9999708,10.7914429,1.9999708,13c0,2.4589844,0.9038085,4.8222656,2.5449219,6.6542969
		c0.6571655,0.7335815,1.4733887,1.3111572,2.3855591,1.7107544L6.2934279,22h-1.293457v1h1.706543l1.2772217-1.2730103
		C8.6291819,21.9006348,9.3038645,22,9.9970407,22h3.9936523c0.6871338,0,1.3555908-0.1002197,1.9973145-0.2733154L17.2968464,23
		h1.703125v-1h-1.296875l-0.6575317-0.6396484c1.0128174-0.4448242,1.9169312-1.1080322,2.6340942-1.965332
		c1.487793-1.7802734,2.3120117-4.0385742,2.3203125-6.3588867C22.0076008,10.8323364,21.266695,8.7028198,19.8994465,6.9391479z"/>
</g>
<g>
</g>
<g>
</g>
<g>
</g>
<g>
</g>
<g>
</g>
<g>
</g>
<g>
</g>
<g>
</g>
<g>
</g>
<g>
</g>
<g>
</g>
<g>
</g>
<g>
</g>
<g>
</g>
<g>
</g>
</svg>
