<?xml version="1.0" ?><!DOCTYPE svg  PUBLIC '-//W3C//DTD SVG 1.1//EN'  'http://www.w3.org/Graphics/SVG/1.1/DTD/svg11.dtd'><svg enable-background="new 0 0 128 128" id="Слой_1" version="1.1" viewBox="0 0 128 128" xml:space="preserve" xmlns="http://www.w3.org/2000/svg" xmlns:xlink="http://www.w3.org/1999/xlink"><path d="M44,86H14C8.5,86,4,81.5,4,76V48h50v28C54,81.5,49.5,86,44,86z" fill="#E5E3E3"/><path d="M4,76L4,76c0,5.5,4.5,10,10,10h30c5.5,0,10-4.5,10-10v0H4z" fill="#FDB915"/><g opacity="0.1"><path d="M14,76V48H4v28c0,5.5,4.5,10,10,10h10C18.5,86,14,81.5,14,76z"/></g><line fill="#E5E3E3" x1="29" x2="5" y1="76" y2="76"/><line fill="#E5E3E3" x1="55" x2="94" y1="53" y2="53"/><path d="M74,124H14c-5.5,0-10-4.5-10-10v-13h80v13C84,119.5,79.5,124,74,124z" fill="#E5E3E3"/><path d="M4,114L4,114c0,5.5,4.5,10,10,10h60c5.5,0,10-4.5,10-10v0H4z" fill="#FDB915"/><g opacity="0.1"><path d="M14,114v-13H4v13c0,5.5,4.5,10,10,10h10C18.5,124,14,119.5,14,114z"/></g><line fill="#E5E3E3" x1="39" x2="5" y1="114" y2="114"/><line fill="#E5E3E3" x1="85" x2="124" y1="106" y2="106"/><path d="M14,88.5h30c6.9,0,12.5-5.6,12.5-12.5V55.5H94c1.4,0,2.5-1.1,2.5-2.5s-1.1-2.5-2.5-2.5H56.5V48  c0-1.4-1.1-2.5-2.5-2.5H4c-1.4,0-2.5,1.1-2.5,2.5v28C1.5,82.9,7.1,88.5,14,88.5z M51.5,50.5V76c0,4.1-3.4,7.5-7.5,7.5H14  c-3.3,0-6-2.1-7.1-5H29c1.4,0,2.5-1.1,2.5-2.5s-1.1-2.5-2.5-2.5H6.5v-23H51.5z" fill="#62355C"/><path d="M124,103.5H86.5V101c0-1.4-1.1-2.5-2.5-2.5H4c-1.4,0-2.5,1.1-2.5,2.5v13c0,6.9,5.6,12.5,12.5,12.5h60  c6.9,0,12.5-5.6,12.5-12.5v-5.5H124c1.4,0,2.5-1.1,2.5-2.5S125.4,103.5,124,103.5z M81.5,114c0,4.1-3.4,7.5-7.5,7.5H14  c-3.3,0-6-2.1-7.1-5H39c1.4,0,2.5-1.1,2.5-2.5s-1.1-2.5-2.5-2.5H6.5v-8h75V114z" fill="#62355C"/></svg>