<?xml version="1.0" encoding="UTF-8" standalone="no"?>
<svg
   sodipodi:docname="12 - Salad.svg"
   inkscape:version="1.1.1 (1:1.1+202109281949+c3084ef5ed)"
   id="svg831"
   version="1.1"
   viewBox="0 0 22.577778 22.577778"
   height="64pt"
   width="64pt"
   inkscape:export-filename="/media/taufikramadhan/Data/Tr Design Studio/Project Design/TR Creative Design/Icon Design/Project Hiring/Icon Icons/010 - Food/Send/4 - Filledline/11 - Nachos.png"
   inkscape:export-xdpi="576"
   inkscape:export-ydpi="576"
   xmlns:inkscape="http://www.inkscape.org/namespaces/inkscape"
   xmlns:sodipodi="http://sodipodi.sourceforge.net/DTD/sodipodi-0.dtd"
   xmlns="http://www.w3.org/2000/svg"
   xmlns:svg="http://www.w3.org/2000/svg"
   xmlns:rdf="http://www.w3.org/1999/02/22-rdf-syntax-ns#"
   xmlns:cc="http://creativecommons.org/ns#"
   xmlns:dc="http://purl.org/dc/elements/1.1/">
  <defs
     id="defs825">
    <pattern
       y="0"
       x="0"
       height="6"
       width="6"
       patternUnits="userSpaceOnUse"
       id="EMFhbasepattern" />
    <pattern
       y="0"
       x="0"
       height="6"
       width="6"
       patternUnits="userSpaceOnUse"
       id="EMFhbasepattern-9" />
    <pattern
       y="0"
       x="0"
       height="6"
       width="6"
       patternUnits="userSpaceOnUse"
       id="EMFhbasepattern-0" />
    <pattern
       y="0"
       x="0"
       height="6"
       width="6"
       patternUnits="userSpaceOnUse"
       id="EMFhbasepattern-7" />
    <pattern
       y="0"
       x="0"
       height="6"
       width="6"
       patternUnits="userSpaceOnUse"
       id="EMFhbasepattern-2" />
    <pattern
       y="0"
       x="0"
       height="6"
       width="6"
       patternUnits="userSpaceOnUse"
       id="EMFhbasepattern-98" />
    <pattern
       y="0"
       x="0"
       height="6"
       width="6"
       patternUnits="userSpaceOnUse"
       id="EMFhbasepattern-6" />
    <pattern
       y="0"
       x="0"
       height="6"
       width="6"
       patternUnits="userSpaceOnUse"
       id="EMFhbasepattern-01" />
    <pattern
       y="0"
       x="0"
       height="6"
       width="6"
       patternUnits="userSpaceOnUse"
       id="EMFhbasepattern-07" />
    <pattern
       y="0"
       x="0"
       height="6"
       width="6"
       patternUnits="userSpaceOnUse"
       id="EMFhbasepattern-8" />
    <pattern
       y="0"
       x="0"
       height="6"
       width="6"
       patternUnits="userSpaceOnUse"
       id="EMFhbasepattern-4" />
    <pattern
       y="0"
       x="0"
       height="6"
       width="6"
       patternUnits="userSpaceOnUse"
       id="EMFhbasepattern-40" />
    <pattern
       y="0"
       x="0"
       height="6"
       width="6"
       patternUnits="userSpaceOnUse"
       id="EMFhbasepattern-08" />
    <pattern
       y="0"
       x="0"
       height="6"
       width="6"
       patternUnits="userSpaceOnUse"
       id="EMFhbasepattern-04" />
    <pattern
       y="0"
       x="0"
       height="6"
       width="6"
       patternUnits="userSpaceOnUse"
       id="EMFhbasepattern-014" />
    <pattern
       y="0"
       x="0"
       height="6"
       width="6"
       patternUnits="userSpaceOnUse"
       id="EMFhbasepattern-27" />
    <pattern
       y="0"
       x="0"
       height="6"
       width="6"
       patternUnits="userSpaceOnUse"
       id="EMFhbasepattern-09" />
    <pattern
       y="0"
       x="0"
       height="6"
       width="6"
       patternUnits="userSpaceOnUse"
       id="EMFhbasepattern-5" />
    <pattern
       y="0"
       x="0"
       height="6"
       width="6"
       patternUnits="userSpaceOnUse"
       id="EMFhbasepattern-018" />
  </defs>
  <sodipodi:namedview
     inkscape:document-rotation="0"
     inkscape:snap-global="true"
     inkscape:snap-nodes="false"
     inkscape:bbox-nodes="true"
     inkscape:snap-bbox="true"
     showguides="false"
     inkscape:snap-midpoints="true"
     inkscape:snap-smooth-nodes="true"
     inkscape:snap-intersection-paths="true"
     inkscape:object-paths="true"
     inkscape:showpageshadow="false"
     inkscape:pagecheckerboard="true"
     inkscape:window-maximized="1"
     inkscape:window-y="31"
     inkscape:window-x="0"
     inkscape:window-height="705"
     inkscape:window-width="1366"
     units="pt"
     showgrid="false"
     inkscape:current-layer="layer1"
     inkscape:document-units="pt"
     inkscape:cy="58.847867"
     inkscape:cx="50.738091"
     inkscape:zoom="2.4045052"
     inkscape:pageshadow="2"
     inkscape:pageopacity="0.0"
     borderopacity="1.0"
     bordercolor="#666666"
     pagecolor="#ffffff"
     id="base">
    <inkscape:grid
       id="grid1378"
       type="xygrid" />
    <sodipodi:guide
       inkscape:locked="false"
       id="guide1380"
       orientation="78.000048,0"
       position="0.97013831,21.607643" />
    <sodipodi:guide
       inkscape:locked="false"
       id="guide1382"
       orientation="0,78.000005"
       position="0.97013831,0.97013129" />
    <sodipodi:guide
       inkscape:locked="false"
       id="guide1384"
       orientation="-78.000048,0"
       position="21.607639,0.97013129" />
    <sodipodi:guide
       inkscape:locked="false"
       id="guide1386"
       orientation="0,-78.000005"
       position="21.607639,21.607643" />
  </sodipodi:namedview>
  <metadata
     id="metadata828">
    <rdf:RDF>
      <cc:Work
         rdf:about="">
        <dc:format>image/svg+xml</dc:format>
        <dc:type
           rdf:resource="http://purl.org/dc/dcmitype/StillImage" />
      </cc:Work>
    </rdf:RDF>
  </metadata>
  <g
     transform="translate(0,-274.42223)"
     id="layer1"
     inkscape:groupmode="layer"
     inkscape:label="Icon">
    <g
       id="g1925"
       style="display:inline"
       transform="matrix(1.2527581,0,0,1.2527581,-113.95633,-75.750558)">
      <g
         id="g434671"
         style="display:inline">
        <g
           id="g434140">
          <path
             style="color:#000000;fill:#d0e2ee;stroke-linecap:round;stroke-linejoin:round;stroke-miterlimit:1.5;-inkscape-stroke:none"
             d="m 99.101562,283.29297 c -0.705828,-0.23697 -1.477664,-0.1721 -2.132812,0.18164 -0.655148,0.35374 -1.135171,0.96344 -1.324219,1.68359 a 0.24292728,0.24292728 0 0 0 0.115235,0.27344 l 2.859375,1.62695 a 0.24292728,0.24292728 0 0 0 0.361328,-0.18945 l 0.287109,-3.32617 a 0.24292728,0.24292728 0 0 0 -0.166016,-0.25 z"
             id="path373483" />
          <path
             style="color:#000000;fill:#fca311;stroke-linecap:round;stroke-linejoin:round;stroke-miterlimit:1.5;-inkscape-stroke:none"
             d="m 104.70508,283.90234 -0.64258,0.14844 a 0.26460996,0.26460996 0 0 0 -0.19922,0.20313 l -0.27344,1.30859 a 0.26460996,0.26460996 0 0 0 0.14844,0.29492 l 1.35742,0.61914 a 0.26460996,0.26460996 0 0 0 0.0723,0.0215 l 1.54492,0.22656 a 0.26460996,0.26460996 0 0 0 0.28516,-0.16406 c 0.27482,-0.68509 0.14419,-1.46835 -0.33789,-2.02735 -0.48165,-0.55848 -1.23568,-0.80111 -1.95313,-0.63086 z"
             id="path373489" />
          <path
             id="path428257"
             style="color:#000000;fill:#ec7523;fill-opacity:1;stroke-width:3.77952;stroke-linecap:round;stroke-linejoin:round;stroke-miterlimit:1.5;-inkscape-stroke:none"
             d="m 396.19922,20.613281 c -0.007,-5.2e-5 -0.0143,-5.2e-5 -0.0215,0 l -2.82812,0.816407 c -0.35403,0.101772 -0.65712,0.332405 -0.8496,0.646484 l 4.71289,2.15039 c 0.0861,0.0401 0.17756,0.06772 0.27149,0.08203 l 5.83984,0.855468 c 0.46009,0.06893 0.90695,-0.188503 1.07812,-0.621093 0.33883,-0.844641 0.51342,-1.728071 0.53321,-2.609375 -2.99448,-1.530555 -5.67279,-2.127296 -8.73633,-1.320311 z"
             transform="matrix(0.26458334,0,0,0.26458334,0,280.06666)"
             sodipodi:nodetypes="cccccccccc" />
          <path
             id="path410354"
             style="fill:#ec7523;fill-opacity:1;stroke-width:3.77953;stroke-linecap:round;stroke-linejoin:round;stroke-miterlimit:1.5"
             d="m 397.53125,14.294922 c -0.59418,-0.0047 -1.19394,0.06237 -1.78711,0.203125 l -0.008,-0.002 -2.42969,0.5625 a 1.0001006,1.0001006 0 0 0 -0.75195,0.767578 l -1.03321,4.945312 a 1.0001006,1.0001006 0 0 0 0.56055,1.115235 l 3.34766,1.527343 c 0.0588,-0.260724 0.10735,-0.526572 0.14453,-0.796874 0.86445,-0.773443 1.73119,-1.567282 2.36914,-2.597657 0.91043,-1.47038 1.60107,-3.43747 1.14258,-5.546875 -0.50842,-0.112418 -1.02903,-0.173534 -1.55469,-0.177734 z"
             transform="matrix(0.26458334,0,0,0.26458334,0,280.06666)" />
          <path
             style="color:#000000;fill:#50b86b;stroke-linecap:round;stroke-linejoin:round;stroke-miterlimit:1.5;-inkscape-stroke:none"
             d="m 105.24023,285.95117 -0.50781,0.14649 a 0.26460996,0.26460996 0 0 0 -0.17578,0.34765 l 0.46875,1.22071 a 0.26460996,0.26460996 0 0 0 0.24805,0.16992 h 2.16797 a 0.26460996,0.26460996 0 0 0 0.25976,-0.3125 c -0.0982,-0.54291 -0.41547,-1.03544 -0.88672,-1.33399 -0.46695,-0.29584 -1.03647,-0.38172 -1.57031,-0.23828 a 0.26460996,0.26460996 0 0 0 -0.004,0 z"
             id="path373495" />
          <path
             id="path430077"
             style="color:#000000;fill:#26783f;fill-opacity:1;stroke-width:3.77952;stroke-linecap:round;stroke-linejoin:round;stroke-miterlimit:1.5;-inkscape-stroke:none"
             d="m 399.6875,21.984375 c -0.64091,0.0024 -1.28354,0.08644 -1.91406,0.255859 a 1.0001006,1.0001006 0 0 0 -0.0156,0 l -1.91797,0.554688 a 1.0001006,1.0001006 0 0 0 -0.66601,1.3125 l 1.77344,4.615234 a 1.0001006,1.0001006 0 0 0 0.9375,0.640625 h 5.10156 c -0.19925,-2.763954 -1.27161,-5.32661 -2.94531,-7.373047 -0.11743,-0.0051 -0.23581,-0.0063 -0.35352,-0.0059 z"
             transform="matrix(0.26458334,0,0,0.26458334,0,280.06666)" />
          <path
             style="color:#000000;fill:#d4e157;stroke-linecap:round;stroke-linejoin:round;stroke-miterlimit:1.5;-inkscape-stroke:none"
             d="m 103.16211,285.35156 a 0.26460996,0.26460996 0 0 0 -0.23633,0.14649 l -0.97265,1.95507 a 0.26460996,0.26460996 0 0 0 0.23828,0.38282 h 3.57226 a 0.26460996,0.26460996 0 0 0 0.26367,-0.27344 c -0.0379,-1.18006 -0.98265,-2.174 -2.16992,-2.21094 a 0.26460996,0.26460996 0 0 0 -0.01,0 z"
             id="path373501" />
          <path
             style="color:#000000;fill:#ee8eb4;stroke-linecap:round;stroke-linejoin:round;stroke-miterlimit:1.5;-inkscape-stroke:none"
             d="m 96.625,282.19727 c -0.983919,0.43777 -1.750662,1.25514 -2.123047,2.26562 -0.04028,0.11031 0.0041,0.23364 0.105469,0.29297 l 1.148437,0.67383 c 0.138702,0.0828 0.318083,0.01 0.359375,-0.14649 0.154954,-0.59027 0.546992,-1.09091 1.083985,-1.38086 0.536397,-0.28962 1.168081,-0.34385 1.746093,-0.15039 h 0.002 l 0.152343,0.0586 c 0.100008,0.0371 0.212505,0.005 0.277344,-0.0801 l 0.820321,-1.06641 c 0.0979,-0.12677 0.0485,-0.31194 -0.0996,-0.37304 l -0.367195,-0.15235 c -1.016957,-0.42721 -2.377093,-0.32014 -3.105525,0.0586 z"
             id="path373507"
             sodipodi:nodetypes="cccccscccccccc" />
          <path
             id="path423889"
             style="fill:#e75f96;fill-opacity:1;stroke-width:3.77953;stroke-linecap:round;stroke-linejoin:round;stroke-miterlimit:1.5"
             d="m 370.29102,9.7656252 c -1.63473,0.1387087 -3.24206,0.6138848 -4.7168,1.4101558 -2.94765,1.591559 -5.10796,4.332367 -5.95899,7.574219 -0.0134,0.05068 -0.0249,0.101097 -0.0351,0.152344 l 2.33203,1.367187 c 0.52376,0.312196 1.20073,0.03654 1.35742,-0.552734 0.58565,-2.230942 2.06808,-4.124829 4.09766,-5.220703 2.02732,-1.094627 4.41499,-1.299547 6.59961,-0.56836 h 0.008 l 0.57617,0.222657 c 0.37759,0.139483 0.80201,0.01675 1.04688,-0.302735 l 1.34375,-1.746094 c -1.34213,-2.3845648 -4.21936,-2.4656725 -6.65063,-2.3359368 z"
             transform="matrix(0.26458334,0,0,0.26458334,0,280.06666)"
             sodipodi:nodetypes="csccccscccccc" />
          <path
             style="color:#000000;fill:#dc1c4b;stroke-linecap:round;stroke-linejoin:round;stroke-miterlimit:1.5;-inkscape-stroke:none"
             d="m 94.013672,283.83208 c -0.256148,-0.14791 -0.560193,-0.17707 -0.826172,-0.0957 v -5e-5 c -0.265979,0.0814 -0.493607,0.2722 -0.597656,0.5625 -0.305632,0.85276 -0.516915,2.12546 0.257812,3.4082 0.04765,0.0798 0.133647,0.1287 0.226563,0.12891 h 6.24414 c 0.274598,-0.002 0.365308,-0.36876 0.123047,-0.49805 -0.256393,-0.13684 -0.455078,-0.58203 -0.455078,-0.58203 -0.02138,-0.0576 -0.06212,-0.1059 -0.115234,-0.13672 z"
             id="path373565"
             sodipodi:nodetypes="cccscccsccc" />
          <path
             style="color:#000000;fill:#801231;stroke-linecap:round;stroke-linejoin:round;stroke-miterlimit:1.5;-inkscape-stroke:none"
             d="m 94.358005,284.33096 c -0.195616,0.33882 -0.407039,0.86487 -0.367771,1.48545 0.03927,0.62057 0.340827,1.32454 1.097657,1.96093 0.04753,0.0402 0.107694,0.0623 0.169921,0.0625 l 4.060547,-0.004 c 0.220946,-0.001 0.342925,-0.25701 0.205078,-0.42969 l -0.578125,-0.72461 c -0.02125,-0.0254 -0.04709,-0.0466 -0.07617,-0.0625 l -4.35273,-2.50029 z"
             id="path373571"
             sodipodi:nodetypes="cscccccccc" />
          <path
             id="path405465"
             style="fill:#a8c2e1;fill-opacity:1;stroke-width:3.77953;stroke-linecap:round;stroke-linejoin:round;stroke-miterlimit:1.5"
             d="m 371.48633,11.664062 c -2.05864,2.614754 -2.93296,5.884729 -2.84961,8.916016 0.0359,1.305407 0.20732,2.586093 0.50781,3.804688 l 3.58985,2.041015 a 0.91815034,0.91815034 0 0 0 1.36523,-0.714843 l 1.08398,-12.572266 a 0.91815034,0.91815034 0 0 0 -0.62695,-0.945313 c -1.00039,-0.335863 -2.03617,-0.511702 -3.07031,-0.529297 z"
             transform="matrix(0.26458334,0,0,0.26458334,0,280.06666)" />
          <path
             id="path416282"
             style="fill:#bfd025;fill-opacity:1;stroke-width:3.77953;stroke-linecap:round;stroke-linejoin:round;stroke-miterlimit:1.5"
             d="m 389.9043,19.974609 a 1.0001006,1.0001006 0 0 0 -0.89258,0.552735 l -3.67774,7.390625 a 1.0001006,1.0001006 0 0 0 0.9004,1.445312 h 5.27148 c 0.59782,-0.487801 1.15725,-1.026667 1.67578,-1.601562 1.18103,-1.309418 2.11085,-3.09633 2.39258,-5.144531 0.44443,-0.397639 0.88839,-0.802246 1.30273,-1.240235 -1.25489,-0.840767 -2.7421,-1.35245 -4.3457,-1.402344 a 1.0001006,1.0001006 0 0 0 -0.0371,0 z"
             transform="matrix(0.26458334,0,0,0.26458334,0,280.06666)" />
          <path
             id="path407539"
             style="fill:#e75f96;fill-opacity:1;stroke-width:3.77953;stroke-linecap:round;stroke-linejoin:round;stroke-miterlimit:1.5"
             d="m 375.59785,13.847656 3.10156,-4.0312498 c 0.37018,-0.4793868 0.18292,-1.179557 -0.37714,-1.4101562 l -1.38868,-0.5742188 c -0.005,-3.41e-5 -0.009,-3.41e-5 -0.0137,0 -1.01069,-0.4042149 -2.05348,-0.6955936 -3.10937,-0.8730468 l -0.87107,3.1542966 c -1.13018,1.013197 -2.02001,2.189103 -2.6914,3.453125 z"
             transform="matrix(0.26458334,0,0,0.26458334,0,280.06666)"
             sodipodi:nodetypes="ccccccccc" />
          <path
             id="path393491"
             style="fill:#611125;fill-opacity:1;stroke-width:3.77953;stroke-linecap:round;stroke-linejoin:round;stroke-miterlimit:1.5"
             d="m 368.72266,21.917969 c 0.16575,1.661632 0.55324,3.259705 1.15429,4.714843 0.39282,0.951019 0.88886,1.894108 1.54297,2.734376 l 3.95703,-0.0039 c 0.83507,-0.0038 1.29639,-0.970398 0.77539,-1.623047 L 373.9668,25.00196 c -0.0803,-0.096 -0.17916,-0.176234 -0.28907,-0.236328 z"
             transform="matrix(0.26458334,0,0,0.26458334,0,280.06666)" />
          <path
             style="color:#000000;fill:#50b86b;stroke-width:1;stroke-linecap:round;stroke-linejoin:round;stroke-miterlimit:1.5;-inkscape-stroke:none"
             d="m 103.29757,280.2961 c -0.83532,-2e-5 -1.62476,0.45567 -1.9792,1.20148 -0.29757,-0.16915 -0.62949,-0.25626 -0.9648,-0.1664 -0.36253,0.0971 -0.621375,0.37792 -0.794786,0.70125 -0.154651,0.28835 -0.250933,0.62032 -0.295073,0.95188 -0.820045,0.54904 -1.109988,1.56986 -1.08417,2.50889 0.01352,0.49124 0.112334,0.96817 0.279569,1.37304 0.167232,0.40487 0.399336,0.74486 0.72657,0.93379 a 0.26460996,0.26460996 0 0 0 0.132807,0.0351 h 2.872693 a 0.26460996,0.26460996 0 0 0 0.0687,-0.008 c 0.45484,-0.12186 0.92709,-0.4426 1.29088,-0.84594 0.32138,-0.35632 0.57257,-0.79474 0.53847,-1.24902 0.25448,-0.19995 0.48487,-0.44101 0.65112,-0.70952 0.19295,-0.31162 0.30591,-0.67703 0.20877,-1.03921 -0.0899,-0.33521 -0.33095,-0.5792 -0.6258,-0.75241 0.57846,-0.8397 0.4416,-2.03317 -0.31368,-2.78846 a 0.26460996,0.26460996 0 0 0 -0.11885,-0.0687 c -0.1968,-0.0527 -0.39642,-0.078 -0.59325,-0.078 z"
             id="path373513" />
        </g>
        <path
           style="color:#000000;fill:#91a9d9;stroke-linecap:round;stroke-linejoin:round;stroke-miterlimit:1.5;-inkscape-stroke:none"
           d="m 94.787109,294.79883 a 0.26460996,0.26460996 0 0 0 -0.259765,0.2207 l -0.144532,0.8457 c -0.111825,0.44729 0.224474,0.9043 0.69336,0.9043 H 104.875 c 0.46889,0 0.80516,-0.45701 0.69336,-0.9043 l -0.14453,-0.8457 a 0.26460996,0.26460996 0 0 0 -0.26172,-0.2207 z"
           id="path373593" />
        <path
           id="path382037"
           style="color:#000000;fill:#6788cb;fill-opacity:1;stroke-width:3.77953;stroke-linecap:round;stroke-linejoin:round;stroke-miterlimit:1.5;-inkscape-stroke:none"
           d="m 358.25,55.679688 a 1.0001006,1.0001006 0 0 0 -0.98047,0.835937 l -0.53906,3.146484 c 0.14378,0.01228 0.28922,0.01953 0.43555,0.01953 h 41.38867 c 0.14633,0 0.29181,-0.0073 0.43554,-0.01953 l -0.53711,-3.146484 a 1.0001006,1.0001006 0 0 0 -0.99023,-0.835937 z"
           transform="matrix(0.26458334,0,0,0.26458334,0,280.06666)" />
        <path
           style="color:#000000;fill:#d0e2ee;stroke-linecap:round;stroke-linejoin:round;stroke-miterlimit:1.5;-inkscape-stroke:none"
           d="m 92.482422,287.30664 c -0.458961,0 -0.808272,0.43756 -0.705078,0.88477 l 1.404297,6.08984 c 0.141177,0.61176 0.690517,1.04687 1.318359,1.04687 h 10.95117 c 0.62785,0 1.17522,-0.43511 1.31641,-1.04687 l 1.40625,-6.08984 c 0.10319,-0.44721 -0.24612,-0.88477 -0.70508,-0.88477 z"
           id="path373599" />
        <path
           id="path387982"
           style="color:#000000;fill:#a8c2e1;fill-opacity:1;stroke-width:1;stroke-linecap:round;stroke-linejoin:round;stroke-miterlimit:1.5;-inkscape-stroke:none"
           d="m 92.482212,287.30653 c -0.45896,0 -0.808059,0.43749 -0.704866,0.8847 l 0.03979,0.17363 h 14.593424 c 0.45896,0 0.80806,0.43749 0.70487,0.8847 l -1.39681,6.05079 c 0.51073,-0.10342 0.92835,-0.4962 1.04903,-1.01906 l 1.40611,-6.09006 c 0.10319,-0.44721 -0.24591,-0.8847 -0.70487,-0.8847 z" />
      </g>
      <path
         id="rect1484"
         style="color:#000000;fill:#000000;stroke-width:3.77953;stroke-linecap:round;stroke-linejoin:round;stroke-miterlimit:1.5;-inkscape-stroke:none"
         d="M 390.41602,0.87109375 C 387.2597,0.87052917 384.27716,2.5887551 382.9375,5.40625 c -1.12521,-0.6380008 -2.3803,-0.9628957 -3.64844,-0.6230469 -1.44024,0.6128374 -2.44594,1.6320432 -3.0742,2.7851563 -3.65179,-1.1511612 -7.5801,-0.9645931 -10.83398,0.4023437 -3.4467,1.4788701 -6.21153,4.1859249 -7.76563,7.5800779 l -2.28711,-1.320312 c -2.12015,-0.995959 -4.61993,-0.245692 -5.38281,1.765625 -1.03469,2.886949 -1.78366,7.046754 0.17578,11.367187 h -0.58203 c -1.73465,0 -3.05408,1.653508 -2.66406,3.34375 l 5.30664,23.017578 c 0.52642,2.281112 2.55568,3.91171 4.88867,3.955079 l -0.34765,2.03125 c -0.42265,1.690544 0.84892,3.417968 2.62109,3.417968 h 37.03516 c 1.77218,0 3.04169,-1.727424 2.61914,-3.417968 l -0.34571,-2.03125 c 2.33201,-0.04427 4.35259,-1.6746 4.87891,-3.955079 l 5.31445,-23.017578 c 0.33305,-1.443387 -0.58121,-2.857184 -1.93554,-3.240234 -0.38733,-1.405675 -1.17651,-2.66621 -2.26563,-3.625 0.69789,-2.40942 0.13965,-5.037016 -1.51953,-6.960938 -1.64996,-1.91315 -4.14528,-2.846401 -6.61719,-2.52539 -0.41604,-1.038002 -1.23731,-1.816613 -2.21484,-2.390625 2.18727,-3.1737522 1.6694,-7.6860291 -1.18555,-10.5410159 C 392.9827,1.2994817 392.82843,1.210992 392.6582,1.1660156 391.91418,0.96665145 391.16007,0.87122684 390.41602,0.87109375 Z m 1.4082,2.26562505 c 2.14474,2.3851079 2.39584,5.9791207 0.38867,8.2343752 l -1.78516,0.283203 c -0.54678,0.08506 -0.92053,0.597988 -0.83398,1.144531 0.0851,0.546779 0.59799,0.920536 1.14453,0.833984 l 1.85352,-0.296874 c 1.15993,0.508192 1.92799,1.22433 2.13281,1.988281 0.17499,0.652573 -0.008,1.463107 -0.54688,2.339843 -0.49897,0.811563 -1.28203,1.634112 -2.15039,2.294922 l -1.45117,-0.0957 c -0.55266,-0.03562 -1.02903,0.384701 -1.0625,0.9375 -0.0356,0.552664 0.3847,1.029034 0.9375,1.0625 l 0.94141,0.05859 c -0.0972,0.857222 -0.63821,1.906658 -1.50977,2.873047 -1.0901,1.208639 -2.63505,2.218197 -3.78515,2.568359 h -7.06055 c 0.42765,-0.780957 0.86156,-1.559067 1.29883,-2.335937 l 4.23047,-1.132813 c 0.53513,-0.142081 0.85296,-0.691938 0.70898,-1.226562 -0.14298,-0.533368 -0.69121,-0.849891 -1.22461,-0.707031 l -2.32422,0.621093 c 0.87841,-1.529268 1.76943,-3.054838 2.66016,-4.58203 l 4.23242,-1.132812 c 0.53513,-0.142081 0.85296,-0.691939 0.70898,-1.226563 -0.14211,-0.534154 -0.69061,-0.851709 -1.2246,-0.708984 l -2.29102,0.617187 c 0.73599,-1.266699 1.47035,-2.536514 2.19531,-3.8125 0.26849,-0.479208 0.10019,-1.085271 -0.37695,-1.357422 -0.48047,-0.274116 -1.09221,-0.106086 -1.36524,0.375 -0.72316,1.272814 -1.4569,2.542586 -2.19335,3.810547 l -0.61915,-2.310547 c -0.14208,-0.535133 -0.69194,-0.852964 -1.22656,-0.708984 -0.53416,0.142112 -0.85171,0.690618 -0.70898,1.224609 l 1.13867,4.226563 c -0.8844,1.517339 -1.76827,3.035902 -2.64453,4.5625 l -0.61133,-2.285156 c -0.14208,-0.535133 -0.69193,-0.852965 -1.22656,-0.708985 -0.53416,0.142107 -0.85172,0.690614 -0.70899,1.224609 l 1.14258,4.242188 c -0.62126,1.104424 -1.2363,2.214763 -1.83984,3.332031 h -1.09766 c -1.87375,-1.825218 -2.52166,-4.52797 -2.60351,-6.908203 -0.0797,-2.896698 0.75541,-5.786821 2.77539,-7.4375 l 0.44336,0.667969 c 0.30572,0.460182 0.92669,0.58525 1.38672,0.279297 0.46085,-0.305096 0.58682,-0.926185 0.28124,-1.386719 l -0.80664,-1.214844 c 0.27327,-1.9993277 0.90772,-3.7976994 2.65821,-4.6542966 0.7631,-0.2044177 1.77442,0.1064198 2.79492,0.8574218 l 0.66797,1.7480469 c 0.19754,0.5154723 0.77541,0.7733719 1.29101,0.5761719 0.51548,-0.1975371 0.77338,-0.775409 0.57618,-1.2910156 L 384.48828,6.90625 c 0.90023,-3.3597112 4.39746,-4.1707924 7.33594,-3.7695312 z m -16.2832,6.1367187 c -0.16778,0.5718705 -0.29036,1.1599325 -0.36914,1.7480465 -0.4409,0.29499 -0.84098,0.627164 -1.20313,0.988282 -5.1984,-1.086428 -10.18587,1.513951 -12.07227,6.009765 l -2.68164,-1.546875 c 1.35082,-3.054501 3.81005,-5.488791 6.89063,-6.8105466 3.16397,-1.2214571 6.44676,-1.3710338 9.43555,-0.3886719 z M 371.20508,13.5 c 0.50152,-0.0065 1.00579,0.03093 1.5039,0.115234 -1.23553,2.020942 -1.70177,4.524544 -1.63671,6.890625 0.0286,1.039578 0.15963,2.061947 0.3789,3.029297 l -7.9414,-4.583984 C 365.11515,15.66406 367.7546,13.576261 371.20508,13.5 Z m -16.875,2.458984 1.82226,1.052735 c -0.56569,1.233961 -1.03151,2.862567 -0.91406,4.71875 0.11256,1.778757 0.79618,3.740368 2.36719,5.632812 h -5.24805 c -2.21638,-4.041641 -1.53571,-7.881408 -0.5293,-10.689453 0.35943,-1.087379 1.52783,-1.178926 2.50196,-0.714844 z m 47.28125,2.228516 c 1.07886,1.251002 1.51752,2.901698 1.24609,4.490234 -1.5194,-0.70542 -3.23911,-0.881572 -4.88281,-0.488281 -0.94268,-0.862121 -2.07966,-1.513459 -3.33789,-1.880859 0.47394,-0.494231 0.89725,-1.028327 1.24609,-1.595703 0.44988,-0.7317 0.78324,-1.541168 0.88086,-2.376953 1.78777,-0.20567 3.86369,0.747938 4.84766,1.851562 z m -43.71289,-0.167969 14.55859,8.402344 c 0.16358,0.330315 0.34064,0.645916 0.5332,0.941406 h -12.60742 c -2.28867,-2.028903 -3.03372,-4.006606 -3.14453,-5.757812 -0.086,-1.359314 0.24182,-2.610987 0.66016,-3.585938 z m 4.19922,4.042969 c -0.35779,0.0011 -0.68774,0.193244 -0.86524,0.503906 l -0.54687,0.9375 c -0.28043,0.480667 -0.11452,1.097803 0.36914,1.373047 0.47937,0.276416 1.09209,0.110982 1.36719,-0.369141 l 0.53906,-0.945312 c 0.27607,-0.477398 0.11354,-1.088175 -0.36328,-1.365234 -0.15194,-0.08804 -0.32439,-0.134525 -0.5,-0.134766 z m 31.30859,0.0098 h 0.002 c 2.68618,0.477029 4.7906,2.596233 5.24414,5.291015 h -8.56054 c 0.45392,-0.377398 0.88428,-0.792284 1.28125,-1.232422 1.05926,-1.174414 1.91642,-2.580178 2.0332,-4.058593 z m 9.23242,2.759765 c 0.96207,0.609501 1.70265,1.496526 2.13086,2.53125 h -4.10156 c -0.15751,-1.226702 -0.57684,-2.371285 -1.20117,-3.376953 1.12037,0.0091 2.3618,0.344729 3.17187,0.845703 z m -36.85742,-0.642578 c -0.35738,6.87e-4 -0.68724,0.192046 -0.86523,0.501953 l -0.54688,0.945313 c -0.27508,0.478932 -0.10981,1.090182 0.36914,1.365234 0.47937,0.276416 1.09209,0.110982 1.36719,-0.369141 l 0.54492,-0.945312 c 0.27508,-0.478932 0.10981,-1.090182 -0.36914,-1.365234 -0.15213,-0.08736 -0.32457,-0.133166 -0.5,-0.132813 z m -6.68355,33.492188 h 23.12109 c 0.55076,-0.0011 0.99698,-0.447286 0.99805,-0.998047 0.002,-0.553048 -0.445,-1.002831 -0.99805,-1.003906 h -25.05273 c -1.45265,0 -2.70852,-0.990817 -3.03516,-2.40625 L 349.87305,34.8125 h 19.27343 c 0.55248,-0.0019 0.99827,-0.451453 0.9961,-1.003906 -0.002,-0.549581 -0.4465,-0.994204 -0.9961,-0.996094 h -19.73437 l -0.58789,-2.546875 c -0.11116,-0.481663 0.22054,-0.902344 0.71484,-0.902344 l 56.64262,3.4e-5 c 0.49429,0 0.826,0.420719 0.71484,0.902344 l -0.58789,2.546875 h -31.71484 c -0.55248,-0.0022 -1.002,0.443602 -1.00391,0.996094 -0.002,0.555364 0.44855,1.006098 1.00391,1.003906 h 31.25195 l -4.26367,18.460938 c -0.32655,1.415433 -1.57468,2.40625 -3.02734,2.40625 H 387.6602 c -0.55229,0.0022 -0.99826,0.451617 -0.9961,1.003906 10e-4,0.550003 0.4461,0.995903 0.9961,0.998047 h 8.96289 l 0.41992,2.443359 c 0.004,0.02268 0.006,0.04449 0.0137,0.06641 0.11414,0.456567 -0.2367,0.9375 -0.67773,0.9375 h -37.03516 c -0.44098,0 -0.79382,-0.480971 -0.67969,-0.9375 z M 353.89453,37.16605 c -0.55,0.0022 -0.99502,0.448047 -0.99609,0.998046 -0.002,0.552285 0.4438,1.001751 0.99609,1.003907 h 1.09375 c 0.55229,-0.0022 0.99826,-0.451618 0.9961,-1.003907 -10e-4,-0.550003 -0.4461,-0.995902 -0.9961,-0.998046 z m 5.44922,0 c -0.55305,-0.0022 -1.00283,0.444995 -1.00391,0.998046 -0.002,0.555342 0.44857,1.006082 1.00391,1.003907 h 1.08398 c 0.55534,0.0022 1.00608,-0.448565 1.00391,-1.003907 -0.001,-0.553051 -0.45086,-1.000209 -1.00391,-0.998046 z m 5.44727,0 c -0.55305,-0.0022 -1.00283,0.444995 -1.00391,0.998046 -0.002,0.555342 0.44857,1.006082 1.00391,1.003907 h 1.08593 c 0.55534,0.0022 1.00608,-0.448565 1.00391,-1.003907 -10e-4,-0.553051 -0.45086,-1.000209 -1.00391,-0.998046 z m -7.625,14.160156 c -0.55534,-0.0022 -1.00608,0.448565 -1.00391,1.003906 0.002,0.552288 0.45162,0.998257 1.00391,0.996094 h 18.51367 c 0.55228,0.0022 1.00175,-0.44381 1.0039,-0.996094 0.002,-0.555337 -0.44856,-1.006076 -1.0039,-1.003906 z"
         transform="matrix(0.26458334,0,0,0.26458334,0,280.06666)"
         sodipodi:nodetypes="sccccccccsccccssccccccsccccsccccccsccccccscccccccccccccscccccccccccccccccccccccccccccccccccscccccsccccccccsccccccscccccccccccccssccccccscccccssccccscccccccccsccccccsccccccssccccccccccccccccccccccccsccscc" />
    </g>
  </g>
</svg>
