<?xml version="1.0" ?><svg style="enable-background:new 0 0 64 64;" version="1.1" viewBox="0 0 64 64" xml:space="preserve" xmlns="http://www.w3.org/2000/svg" xmlns:xlink="http://www.w3.org/1999/xlink"><g id="rice_cooker"/><g id="kettle"><g><g><path d="M22.8624,56.8006v2.5997     c0,1.4312,1.1719,2.5997,2.5996,2.5997h25.8716c1.4312,0,2.5996-1.1685,2.5996-2.5997v-2.5997     c-0.1625,0.0035-9.2922-6.3955-9.4651-6.3989L22.8624,56.8006z" style="fill-rule:evenodd;clip-rule:evenodd;fill:#6B7B8F;"/></g><g><path d="M4.9728,29.0857l12.2444,12.4142v8.2208v1.6455     c0,2.0085,1.9497,5.4344,5.6452,5.4344h30.5661h0.5047c4.2935-0.0899,5.3444-2.5098,5.3444-5.431l0.0311-20.1026     c0-6.0878-3.7992-7.8682-5.5968-8.7151v-5.9115C53.712,7.1406,47.3616,2,38.2872,2S22.8624,7.1406,22.8624,16.6405v5.8009     c-0.5151,0.5773-4.5597,2.1675-4.5597,8.2312l-4.0481-3.4017c-0.8435-0.7121-1.5349-0.6637-2.731-0.6637H6.238     C5.3012,26.607,4.1501,27.7133,4.9728,29.0857L4.9728,29.0857z M43.0543,21.4492h-9.1989H27.27v-6.0014     c0-6.1016,5.5829-9.2786,11.1866-9.1818c5.6002-0.0968,11.1866,3.0802,11.1866,9.1818v6.0014H43.0543z" style="fill-rule:evenodd;clip-rule:evenodd;fill:#E0E0E0;"/></g><g><path d="M33.8554,18.9636v2.4856h9.1989v-2.4856     c0-1.3655-1.1166-2.4856-2.4855-2.4856h-4.2278C34.9754,16.478,33.8554,17.5981,33.8554,18.9636L33.8554,18.9636z" style="fill-rule:evenodd;clip-rule:evenodd;fill:#6B7B8F;"/></g><g><path d="M52.7198,31.2671l-0.0242,18.4536l-0.0035,1.649     c0,2.9212-1.0509,5.3411-5.3444,5.431h6.0807h0.5047c4.2935-0.0899,5.3444-2.5098,5.3444-5.431l0.0311-20.1026     c0-6.0878-3.7992-7.8682-5.5968-8.7151v-5.9115C53.712,7.1406,47.3616,2,38.2872,2c-1.1442,0-2.2435,0.0795-3.2944,0.242     c3.9962,0.6154,7.263,2.3923,9.3959,5.2443c3.0386,1.4347,5.2545,4.1173,5.2545,7.9615v6.0014h-2.5166     C49.6432,21.4492,52.7198,24.8198,52.7198,31.2671L52.7198,31.2671z" style="fill-rule:evenodd;clip-rule:evenodd;fill:#C9C7C7;"/></g><g><path d="M36.818,16.478c1.3586,0.0069,2.4717,1.1235,2.4717,2.4856     v2.4856h3.7646v-2.4856c0-1.3655-1.1166-2.4856-2.4855-2.4856H36.818z" style="fill-rule:evenodd;clip-rule:evenodd;fill:#586D87;"/></g><g><path d="M50.1686,59.4003c0,1.4312-1.1719,2.5997-2.5996,2.5997     h3.7646c1.4312,0,2.5996-1.1685,2.5996-2.5997v-2.5997l0,0h-0.5047h-3.2599V59.4003z" style="fill-rule:evenodd;clip-rule:evenodd;fill:#586D87;"/></g><g><path d="M54.7119,21.9229v-5.2822C54.7119,6.9932,48.4185,1,38.2871,1S21.8623,6.9932,21.8623,16.6406v5.3091     c-0.019,0.0132-0.0386,0.0264-0.0586,0.0396c-1.0713,0.7314-3.687,2.5161-4.3477,6.6655l-2.5562-2.1479     c-1.0723-0.9058-2.042-0.9023-3.165-0.9004l-5.4971,0.0005c-0.8794,0-1.7739,0.5361-2.2256,1.3345     c-0.4604,0.8125-0.4229,1.7817,0.1025,2.6587c0.041,0.0684,0.0898,0.1313,0.146,0.188l11.9565,12.1221v9.4561     c0,2.4606,2.125,5.8029,5.645,6.3491v1.6851c0,1.9844,1.6147,3.5996,3.5996,3.5996h25.8716c1.9849,0,3.5996-1.6152,3.5996-3.5996     v-1.6816c1.5704-0.178,2.8218-0.6867,3.7026-1.5508c1.105-1.083,1.6421-2.6523,1.6421-4.7959l0.0308-20.105     C60.3086,25.1709,56.7471,22.9331,54.7119,21.9229z M5.7803,28.481c-0.1597-0.3218-0.062-0.4941-0.0283-0.5537     c0.1187-0.209,0.3584-0.3203,0.4858-0.3203l5.5024-0.0005c1.0552,0.001,1.3794,0.0151,1.8711,0.4302l4.0479,3.4014     c0.2993,0.251,0.7153,0.3052,1.0659,0.1406c0.3525-0.1641,0.5776-0.5176,0.5776-0.9063c0-4.5547,2.4507-6.2271,3.6284-7.0308     c0.2974-0.2031,0.5127-0.3496,0.6772-0.5342c0.1636-0.1836,0.2539-0.4204,0.2539-0.666v-5.8008     C23.8623,8.0991,29.2549,3,38.2871,3s14.4248,5.0991,14.4248,13.6406v5.9111c0,0.3872,0.2319,0.7437,0.5825,0.9087     c1.7524,0.8257,5.0142,2.3628,5.0142,7.8052l-0.0267,17.4551H18.2173V41.5c0-0.2627-0.1035-0.5146-0.2881-0.7021L5.7803,28.481z      M52.9331,59.4004c0,0.8818-0.7178,1.5996-1.5996,1.5996H25.4619c-0.8818,0-1.5996-0.7178-1.5996-1.5996v-1.5996h29.0708V59.4004     z M57.2354,54.7402c-0.7529,0.7393-2.0244,1.1055-3.8066,1.0605H22.8623c-3.0498,0-4.645-2.8867-4.645-4.4346v-0.6455h40.0615     l-0.001,0.6494C58.2778,52.9502,57.937,54.0527,57.2354,54.7402z"/><path d="M27.27,22.4492h22.373c0.5522,0,1-0.4478,1-1v-6.0015c0-2.6396-0.9639-4.9819-2.7876-6.7739     c-2.2695-2.2305-5.7104-3.4658-9.3813-3.4077c-3.7251-0.0747-7.1484,1.1768-9.417,3.4067     c-1.8232,1.792-2.7871,4.1348-2.7871,6.7749v6.0015C26.27,22.0015,26.7178,22.4492,27.27,22.4492z M34.8555,20.4492v-1.4858     c0-0.8188,0.6665-1.4854,1.4854-1.4854h4.228c0.8188,0,1.4854,0.6665,1.4854,1.4854v1.4858H34.8555z M28.27,15.4478     c0-2.1211,0.7363-3.9209,2.189-5.3486c1.8604-1.8286,4.8203-2.8926,8.0151-2.833c3.1299-0.0576,6.1187,1.0054,7.9795,2.834     c1.4526,1.4277,2.1895,3.2271,2.1895,5.3477v5.0015h-4.5889v-1.4858c0-1.9219-1.5635-3.4854-3.4854-3.4854h-4.228     c-1.9219,0-3.4854,1.5635-3.4854,3.4854v1.4858H28.27V15.4478z"/></g></g></g><g id="cutting_board"/><g id="mug"/><g id="scale"/><g id="rolling_pin"/><g id="spatula"/><g id="ricebowl"/><g id="bowl"/><g id="knife"/><g id="oven"/><g id="frying_pan"/><g id="buthcer_knife"/><g id="soup_spoon"/><g id="mixer"/></svg>