<?xml version="1.0" ?><svg data-name="Layer 2" id="Layer_2" viewBox="0 0 272 272" xmlns="http://www.w3.org/2000/svg"><defs><style>.cls-1{fill:#f54337;}.cls-2{fill:#d7d8da;}.cls-3{fill:#464646;}</style></defs><title/><path class="cls-1" d="M160,108H260a4,4,0,0,1,4,4v0a4,4,0,0,1-4,4H160a0,0,0,0,1,0,0v-8A0,0,0,0,1,160,108Z"/><polygon class="cls-2" points="8 170 192 170 168 132 8 132 8 170"/><path class="cls-3" d="M138.7,128H41.3C26.19,128,12.78,117.53,8,102H172C167.22,117.53,153.81,128,138.7,128Z"/></svg>